<svg viewBox="0 0 20 20" fill="currentColor" xmlns="http://www.w3.org/2000/svg">
<path fill-rule="evenodd" clip-rule="evenodd" d="M13 5.09677C13 5.23795 12.9908 5.37692 12.9731 5.51309C13.2219 5.67838 13.4569 5.86382 13.676 6.06716C14.0753 5.86408 14.5247 5.75 15 5.75C16.6569 5.75 18 7.13647 18 8.84677C18 10.4643 16.7986 11.7922 15.2667 11.9315C15.2051 12.1424 15.1319 12.3482 15.048 12.548C15.6918 13.116 16.1 13.9604 16.1 14.9032C16.1 16.6135 14.7569 18 13.1 18C11.8029 18 10.698 17.1502 10.2794 15.9605C10.1869 15.9653 10.0937 15.9677 10 15.9677C9.9063 15.9677 9.81314 15.9653 9.72059 15.9605C9.30198 17.1502 8.19713 18 6.89999 18C5.24314 18 3.89999 16.6135 3.89999 14.9032C3.89999 13.9604 4.30816 13.116 4.95204 12.548C4.86806 12.3482 4.79489 12.1424 4.73328 11.9315C3.20137 11.7922 2 10.4643 2 8.84677C2 7.13647 3.34315 5.75 5 5.75C5.47526 5.75 5.9247 5.86408 6.32404 6.06715C6.54313 5.86382 6.77813 5.67838 7.02688 5.51309C7.00915 5.37692 7 5.23795 7 5.09677C7 3.38647 8.34315 2 10 2C11.6569 2 13 3.38647 13 5.09677ZM12 10.2581C12 11.3983 11.1046 12.3226 10 12.3226C8.89543 12.3226 8 11.3983 8 10.2581C8 9.11786 8.89543 8.19355 10 8.19355C11.1046 8.19355 12 9.11786 12 10.2581Z" />
</svg>
