<svg width="206" height="55" viewBox="0 0 206 55" fill="none" xmlns="http://www.w3.org/2000/svg">
<path d="M46.2963 25C46.2963 36.7616 36.7617 46.2963 25 46.2963C13.2384 46.2963 3.70374 36.7616 3.70374 25C3.70374 13.2384 13.2384 3.7037 25 3.7037C36.7617 3.7037 46.2963 13.2384 46.2963 25Z" fill="url(#paint0_linear)"/>
<path fill-rule="evenodd" clip-rule="evenodd" d="M50 25C50 38.8071 38.8071 50 25 50C11.1929 50 0 38.8071 0 25C0 11.1929 11.1929 0 25 0C38.8071 0 50 11.1929 50 25ZM25 46.2963C36.7616 46.2963 46.2963 36.7616 46.2963 25C46.2963 13.2384 36.7616 3.7037 25 3.7037C13.2384 3.7037 3.7037 13.2384 3.7037 25C3.7037 36.7616 13.2384 46.2963 25 46.2963Z" fill="#CCCCFF"/>
<path d="M14.1112 22.7778C13.9654 23.4958 13.8889 24.239 13.8889 25C13.8889 31.1365 18.8635 36.1111 25 36.1111C31.1365 36.1111 36.1111 31.1365 36.1111 25C36.1111 18.8635 31.1365 13.8889 25 13.8889C24.239 13.8889 23.4959 13.9654 22.7779 14.1111V22.7778H14.1112Z" fill="black"/>
<path d="M80.168 16.6289C82.1016 16.6289 83.5957 17.2031 84.6504 18.3516C85.7051 19.5 86.2324 21.3633 86.2324 23.9414V36H80.9238V23.9238C80.9238 23.127 80.8184 22.5117 80.6074 22.0781C80.3965 21.6328 80.0918 21.3281 79.6934 21.1641C79.3066 21 78.8145 20.918 78.2168 20.918C77.502 20.918 76.8926 21.0938 76.3887 21.4453C75.8848 21.7852 75.4863 22.2715 75.1934 22.9043C75.2051 22.9863 75.2109 23.1211 75.2109 23.3086V36H69.9023V23.9766C69.9023 23.1797 69.7969 22.5586 69.5859 22.1133C69.375 21.668 69.0703 21.3574 68.6719 21.1816C68.2852 21.0059 67.7871 20.918 67.1777 20.918C66.498 20.918 65.9062 21.0703 65.4023 21.375C64.9102 21.668 64.3047 22.0864 64 22.6372V36H58V17H64L64.0488 19.1074C64.6816 18.3105 65.4551 17.7012 66.3691 17.2793C67.2949 16.8457 68.3379 16.6289 69.498 16.6289C70.6699 16.6289 71.6777 16.8691 72.5215 17.3496C73.377 17.8184 74.0332 18.5391 74.4902 19.5117C75.123 18.5859 75.9141 17.877 76.8633 17.3848C77.8242 16.8809 78.9258 16.6289 80.168 16.6289Z" fill="black"/>
<path d="M88.1759 26.3145C88.1759 24.4512 88.5274 22.7871 89.2305 21.3223C89.9454 19.8574 90.9825 18.709 92.3419 17.877C93.7012 17.0449 95.3243 16.6289 97.211 16.6289C99.1095 16.6289 100.738 17.0449 102.098 17.877C103.469 18.709 104.506 19.8574 105.209 21.3223C105.924 22.7871 106.281 24.4512 106.281 26.3145V26.6836C106.281 28.5469 105.924 30.2109 105.209 31.6758C104.506 33.1289 103.475 34.2715 102.115 35.1035C100.756 35.9355 99.1329 36.3516 97.2462 36.3516C95.3477 36.3516 93.713 35.9355 92.3419 35.1035C90.9825 34.2715 89.9454 33.1289 89.2305 31.6758C88.5274 30.2109 88.1759 28.5469 88.1759 26.6836V26.3145ZM93.4845 26.6836C93.4845 28.3242 93.7833 29.6367 94.3809 30.6211C94.9786 31.5938 95.9337 32.0801 97.2462 32.0801C98.5352 32.0801 99.4786 31.5879 100.076 30.6035C100.674 29.6191 100.973 28.3125 100.973 26.6836V26.3145C100.973 24.6973 100.674 23.3906 100.076 22.3945C99.4786 21.3984 98.5235 20.9004 97.211 20.9004C95.922 20.9004 94.9786 21.4043 94.3809 22.4121C93.7833 23.4082 93.4845 24.709 93.4845 26.3145V26.6836Z" fill="black"/>
<path d="M118.701 16.6289C120.611 16.6289 122.088 17.2031 123.131 18.3516C124.174 19.4883 124.695 21.3516 124.695 23.9414V36H119.387V23.9238C119.387 22.7988 119.147 22.0195 118.666 21.5859C118.186 21.1406 117.442 20.918 116.434 20.918C115.742 20.918 115.139 21.0645 114.623 21.3574C114.119 21.6504 113.709 22.0664 113.393 22.6055V36H108.084V16.9805H113.059L113.235 19.1777C113.903 18.3457 114.699 17.7129 115.625 17.2793C116.551 16.8457 117.576 16.6289 118.701 16.6289Z" fill="black"/>
<path d="M126.551 26.3145C126.551 24.4512 126.903 22.7871 127.606 21.3223C128.321 19.8574 129.358 18.709 130.717 17.877C132.076 17.0449 133.699 16.6289 135.586 16.6289C137.485 16.6289 139.114 17.0449 140.473 17.877C141.844 18.709 142.881 19.8574 143.584 21.3223C144.299 22.7871 144.656 24.4512 144.656 26.3145V26.6836C144.656 28.5469 144.299 30.2109 143.584 31.6758C142.881 33.1289 141.85 34.2715 140.49 35.1035C139.131 35.9355 137.508 36.3516 135.621 36.3516C133.723 36.3516 132.088 35.9355 130.717 35.1035C129.358 34.2715 128.321 33.1289 127.606 31.6758C126.903 30.2109 126.551 28.5469 126.551 26.6836V26.3145ZM131.86 26.6836C131.86 28.3242 132.158 29.6367 132.756 30.6211C133.354 31.5938 134.309 32.0801 135.621 32.0801C136.91 32.0801 137.854 31.5879 138.451 30.6035C139.049 29.6191 139.348 28.3125 139.348 26.6836V26.3145C139.348 24.6973 139.049 23.3906 138.451 22.3945C137.854 21.3984 136.899 20.9004 135.586 20.9004C134.297 20.9004 133.354 21.4043 132.756 22.4121C132.158 23.4082 131.86 24.709 131.86 26.3145V26.6836Z" fill="black"/>
<path d="M162.526 29.3379C162.526 30.6855 162.174 31.8926 161.471 32.959C160.768 34.0254 159.813 34.8574 158.606 35.4551C157.41 36.0527 156.08 36.3516 154.616 36.3516C152.705 36.3516 151.088 35.9355 149.764 35.1035C148.44 34.2715 147.444 33.1289 146.776 31.6758C146.119 30.2227 145.791 28.5703 145.791 26.7188V26.2617C145.791 24.4102 146.119 22.7578 146.776 21.3047C147.444 19.8516 148.434 18.709 149.746 17.877C151.071 17.0449 152.682 16.6289 154.58 16.6289C156.139 16.6289 157.516 16.9336 158.711 17.543C159.918 18.1406 160.856 19.0078 161.524 20.1445C162.192 21.2695 162.526 22.5996 162.526 24.1348H157.551C157.539 23.1973 157.264 22.4238 156.725 21.8145C156.186 21.2051 155.436 20.9004 154.475 20.9004C153.186 20.9004 152.301 21.3867 151.821 22.3594C151.34 23.3203 151.1 24.6211 151.1 26.2617V26.7188C151.1 28.3945 151.334 29.707 151.803 30.6562C152.284 31.6055 153.186 32.0801 154.51 32.0801C155.424 32.0801 156.157 31.834 156.707 31.3418C157.258 30.8496 157.539 30.1816 157.551 29.3379H162.526Z" fill="black"/>
<path d="M164.539 36V9H169.866V36H164.539Z" fill="black"/>
<path d="M189.598 28.2129H177.575C177.774 29.3965 178.266 30.3398 179.051 31.043C179.836 31.7344 180.844 32.0801 182.075 32.0801C182.989 32.0801 183.832 31.9102 184.606 31.5703C185.391 31.2188 186.059 30.6973 186.61 30.0059L189.159 32.9414C188.491 33.9023 187.512 34.7109 186.223 35.3672C184.946 36.0234 183.446 36.3516 181.723 36.3516C179.778 36.3516 178.084 35.9414 176.643 35.1211C175.213 34.3008 174.112 33.1875 173.338 31.7812C172.577 30.375 172.196 28.8223 172.196 27.123V26.4551C172.196 24.5566 172.553 22.8633 173.268 21.375C173.983 19.8867 175.014 18.7266 176.362 17.8945C177.709 17.0508 179.303 16.6289 181.143 16.6289C182.936 16.6289 184.465 17.0098 185.731 17.7715C186.997 18.5332 187.957 19.6172 188.614 21.0234C189.27 22.418 189.598 24.0645 189.598 25.9629V28.2129ZM184.395 24.2402C184.372 23.209 184.084 22.3945 183.534 21.7969C182.995 21.1992 182.186 20.9004 181.108 20.9004C180.1 20.9004 179.309 21.2344 178.735 21.9023C178.172 22.5703 177.803 23.4902 177.627 24.6621H184.395V24.2402Z" fill="black"/>
<path d="M61.834 54L59.3496 46.8457H59.3027C59.3691 47.9082 59.4023 48.9043 59.4023 49.834V54H58.1309V45.4336H60.1055L62.4844 52.248H62.5195L64.9688 45.4336H66.9492V54H65.6016V49.7637C65.6016 49.3379 65.6113 48.7832 65.6309 48.0996C65.6543 47.416 65.6738 47.002 65.6895 46.8574H65.6426L63.0703 54H61.834Z" fill="#ACBACE"/>
<path d="M74.8066 50.748C74.8066 51.8066 74.5352 52.6328 73.9922 53.2266C73.4492 53.8203 72.6934 54.1172 71.7246 54.1172C71.1191 54.1172 70.584 53.9805 70.1191 53.707C69.6543 53.4336 69.2969 53.041 69.0469 52.5293C68.7969 52.0176 68.6719 51.4238 68.6719 50.748C68.6719 49.6973 68.9414 48.877 69.4805 48.2871C70.0195 47.6973 70.7793 47.4023 71.7598 47.4023C72.6973 47.4023 73.4395 47.7051 73.9863 48.3105C74.5332 48.9121 74.8066 49.7246 74.8066 50.748ZM70.0898 50.748C70.0898 52.2441 70.6426 52.9922 71.748 52.9922C72.8418 52.9922 73.3887 52.2441 73.3887 50.748C73.3887 49.2676 72.8379 48.5273 71.7363 48.5273C71.1582 48.5273 70.7383 48.7188 70.4766 49.1016C70.2188 49.4844 70.0898 50.0332 70.0898 50.748Z" fill="#ACBACE"/>
<path d="M82.0957 54H80.7129V50.0156C80.7129 49.5156 80.6113 49.1426 80.4082 48.8965C80.209 48.6504 79.8906 48.5273 79.4531 48.5273C78.8711 48.5273 78.4453 48.6992 78.1758 49.043C77.9062 49.3867 77.7715 49.9629 77.7715 50.7715V54H76.3945V47.5195H77.4727L77.666 48.3691H77.7363C77.9316 48.0605 78.209 47.8223 78.5684 47.6543C78.9277 47.4863 79.3262 47.4023 79.7637 47.4023C81.3184 47.4023 82.0957 48.1934 82.0957 49.7754V54Z" fill="#ACBACE"/>
<path d="M89.7598 50.748C89.7598 51.8066 89.4883 52.6328 88.9453 53.2266C88.4023 53.8203 87.6465 54.1172 86.6777 54.1172C86.0723 54.1172 85.5371 53.9805 85.0723 53.707C84.6074 53.4336 84.25 53.041 84 52.5293C83.75 52.0176 83.625 51.4238 83.625 50.748C83.625 49.6973 83.8945 48.877 84.4336 48.2871C84.9727 47.6973 85.7324 47.4023 86.7129 47.4023C87.6504 47.4023 88.3926 47.7051 88.9395 48.3105C89.4863 48.9121 89.7598 49.7246 89.7598 50.748ZM85.043 50.748C85.043 52.2441 85.5957 52.9922 86.7012 52.9922C87.7949 52.9922 88.3418 52.2441 88.3418 50.748C88.3418 49.2676 87.791 48.5273 86.6895 48.5273C86.1113 48.5273 85.6914 48.7188 85.4297 49.1016C85.1719 49.4844 85.043 50.0332 85.043 50.748Z" fill="#ACBACE"/>
<path d="M94.6582 47.4023C95.4668 47.4023 96.0957 47.6953 96.5449 48.2812C96.998 48.8672 97.2246 49.6895 97.2246 50.748C97.2246 51.8105 96.9961 52.6387 96.5391 53.2324C96.082 53.8223 95.4473 54.1172 94.6348 54.1172C93.8145 54.1172 93.1777 53.8223 92.7246 53.2324H92.6309L92.3789 54H91.3477V44.8828H92.7246V47.0508C92.7246 47.2109 92.7168 47.4492 92.7012 47.7656C92.6855 48.082 92.6738 48.2832 92.666 48.3691H92.7246C93.1621 47.7246 93.8066 47.4023 94.6582 47.4023ZM94.3008 48.5273C93.7461 48.5273 93.3457 48.6914 93.0996 49.0195C92.8574 49.3438 92.7324 49.8887 92.7246 50.6543V50.748C92.7246 51.5371 92.8496 52.1094 93.0996 52.4648C93.3496 52.8164 93.7578 52.9922 94.3242 52.9922C94.8125 52.9922 95.1816 52.7988 95.4316 52.4121C95.6855 52.0254 95.8125 51.4668 95.8125 50.7363C95.8125 49.2637 95.3086 48.5273 94.3008 48.5273Z" fill="#ACBACE"/>
<path d="M102.879 54L102.604 53.0977H102.557C102.244 53.4922 101.93 53.7617 101.613 53.9062C101.297 54.0469 100.891 54.1172 100.395 54.1172C99.7578 54.1172 99.2598 53.9453 98.9004 53.6016C98.5449 53.2578 98.3672 52.7715 98.3672 52.1426C98.3672 51.4746 98.6152 50.9707 99.1113 50.6309C99.6074 50.291 100.363 50.1055 101.379 50.0742L102.498 50.0391V49.6934C102.498 49.2793 102.4 48.9707 102.205 48.7676C102.014 48.5605 101.715 48.457 101.309 48.457C100.977 48.457 100.658 48.5059 100.354 48.6035C100.049 48.7012 99.7559 48.8164 99.4746 48.9492L99.0293 47.9648C99.3809 47.7812 99.7656 47.6426 100.184 47.5488C100.602 47.4512 100.996 47.4023 101.367 47.4023C102.191 47.4023 102.812 47.582 103.23 47.9414C103.652 48.3008 103.863 48.8652 103.863 49.6348V54H102.879ZM100.828 53.0625C101.328 53.0625 101.729 52.9238 102.029 52.6465C102.334 52.3652 102.486 51.9727 102.486 51.4688V50.9062L101.654 50.9414C101.006 50.9648 100.533 51.0742 100.236 51.2695C99.9434 51.4609 99.7969 51.7559 99.7969 52.1543C99.7969 52.4434 99.8828 52.668 100.055 52.8281C100.227 52.9844 100.484 53.0625 100.828 53.0625Z" fill="#ACBACE"/>
<path d="M111.486 54H110.104V50.0156C110.104 49.5156 110.002 49.1426 109.799 48.8965C109.6 48.6504 109.281 48.5273 108.844 48.5273C108.262 48.5273 107.836 48.6992 107.566 49.043C107.297 49.3867 107.162 49.9629 107.162 50.7715V54H105.785V47.5195H106.863L107.057 48.3691H107.127C107.322 48.0605 107.6 47.8223 107.959 47.6543C108.318 47.4863 108.717 47.4023 109.154 47.4023C110.709 47.4023 111.486 48.1934 111.486 49.7754V54Z" fill="#ACBACE"/>
<path d="M114.732 50.5781L115.512 49.6055L117.469 47.5195H119.057L116.449 50.3027L119.221 54H117.604L115.523 51.1582L114.768 51.7793V54H113.402V44.8828H114.768V49.3301L114.697 50.5781H114.732Z" fill="#ACBACE"/>
<path d="M128.701 54L127.863 50.9766C127.762 50.6562 127.578 49.9121 127.312 48.7441H127.26C127.033 49.7988 126.854 50.5469 126.721 50.9883L125.859 54H124.336L122.52 47.5195H123.926L124.752 50.7129C124.939 51.502 125.072 52.1777 125.15 52.7402H125.186C125.225 52.4551 125.283 52.1289 125.361 51.7617C125.443 51.3906 125.514 51.1133 125.572 50.9297L126.557 47.5195H128.068L129.023 50.9297C129.082 51.1211 129.154 51.4141 129.24 51.8086C129.33 52.2031 129.383 52.5098 129.398 52.7285H129.445C129.504 52.248 129.641 51.5762 129.855 50.7129L130.693 47.5195H132.076L130.248 54H128.701Z" fill="#ACBACE"/>
<path d="M136.025 54.1172C135.018 54.1172 134.229 53.8242 133.658 53.2383C133.092 52.6484 132.809 51.8379 132.809 50.8066C132.809 49.748 133.072 48.916 133.6 48.3105C134.127 47.7051 134.852 47.4023 135.773 47.4023C136.629 47.4023 137.305 47.6621 137.801 48.1816C138.297 48.7012 138.545 49.416 138.545 50.3262V51.0703H134.227C134.246 51.6992 134.416 52.1836 134.736 52.5234C135.057 52.8594 135.508 53.0273 136.09 53.0273C136.473 53.0273 136.828 52.9922 137.156 52.9219C137.488 52.8477 137.844 52.7266 138.223 52.5586V53.6777C137.887 53.8379 137.547 53.9512 137.203 54.0176C136.859 54.084 136.467 54.1172 136.025 54.1172ZM135.773 48.4453C135.336 48.4453 134.984 48.584 134.719 48.8613C134.457 49.1387 134.301 49.543 134.25 50.0742H137.191C137.184 49.5391 137.055 49.1348 136.805 48.8613C136.555 48.584 136.211 48.4453 135.773 48.4453Z" fill="#ACBACE"/>
<path d="M143.42 47.4023C144.229 47.4023 144.857 47.6953 145.307 48.2812C145.76 48.8672 145.986 49.6895 145.986 50.748C145.986 51.8105 145.758 52.6387 145.301 53.2324C144.844 53.8223 144.209 54.1172 143.396 54.1172C142.576 54.1172 141.939 53.8223 141.486 53.2324H141.393L141.141 54H140.109V44.8828H141.486V47.0508C141.486 47.2109 141.479 47.4492 141.463 47.7656C141.447 48.082 141.436 48.2832 141.428 48.3691H141.486C141.924 47.7246 142.568 47.4023 143.42 47.4023ZM143.062 48.5273C142.508 48.5273 142.107 48.6914 141.861 49.0195C141.619 49.3438 141.494 49.8887 141.486 50.6543V50.748C141.486 51.5371 141.611 52.1094 141.861 52.4648C142.111 52.8164 142.52 52.9922 143.086 52.9922C143.574 52.9922 143.943 52.7988 144.193 52.4121C144.447 52.0254 144.574 51.4668 144.574 50.7363C144.574 49.2637 144.07 48.5273 143.062 48.5273Z" fill="#ACBACE"/>
<path d="M153.533 54.1172C152.525 54.1172 151.736 53.8242 151.166 53.2383C150.6 52.6484 150.316 51.8379 150.316 50.8066C150.316 49.748 150.58 48.916 151.107 48.3105C151.635 47.7051 152.359 47.4023 153.281 47.4023C154.137 47.4023 154.812 47.6621 155.309 48.1816C155.805 48.7012 156.053 49.416 156.053 50.3262V51.0703H151.734C151.754 51.6992 151.924 52.1836 152.244 52.5234C152.564 52.8594 153.016 53.0273 153.598 53.0273C153.98 53.0273 154.336 52.9922 154.664 52.9219C154.996 52.8477 155.352 52.7266 155.73 52.5586V53.6777C155.395 53.8379 155.055 53.9512 154.711 54.0176C154.367 54.084 153.975 54.1172 153.533 54.1172ZM153.281 48.4453C152.844 48.4453 152.492 48.584 152.227 48.8613C151.965 49.1387 151.809 49.543 151.758 50.0742H154.699C154.691 49.5391 154.562 49.1348 154.312 48.8613C154.062 48.584 153.719 48.4453 153.281 48.4453Z" fill="#ACBACE"/>
<path d="M159.059 50.6895L156.885 47.5195H158.455L159.932 49.7871L161.42 47.5195H162.979L160.799 50.6895L163.09 54H161.531L159.932 51.5742L158.338 54H156.779L159.059 50.6895Z" fill="#ACBACE"/>
<path d="M166.641 53.0039C166.977 53.0039 167.312 52.9512 167.648 52.8457V53.8828C167.496 53.9492 167.299 54.0039 167.057 54.0469C166.818 54.0938 166.57 54.1172 166.312 54.1172C165.008 54.1172 164.355 53.4297 164.355 52.0547V48.5625H163.471V47.9531L164.42 47.4492L164.889 46.0781H165.738V47.5195H167.584V48.5625H165.738V52.0312C165.738 52.3633 165.82 52.6094 165.984 52.7695C166.152 52.9258 166.371 53.0039 166.641 53.0039Z" fill="#ACBACE"/>
<path d="M171.779 54.1172C170.771 54.1172 169.982 53.8242 169.412 53.2383C168.846 52.6484 168.562 51.8379 168.562 50.8066C168.562 49.748 168.826 48.916 169.354 48.3105C169.881 47.7051 170.605 47.4023 171.527 47.4023C172.383 47.4023 173.059 47.6621 173.555 48.1816C174.051 48.7012 174.299 49.416 174.299 50.3262V51.0703H169.98C170 51.6992 170.17 52.1836 170.49 52.5234C170.811 52.8594 171.262 53.0273 171.844 53.0273C172.227 53.0273 172.582 52.9922 172.91 52.9219C173.242 52.8477 173.598 52.7266 173.977 52.5586V53.6777C173.641 53.8379 173.301 53.9512 172.957 54.0176C172.613 54.084 172.221 54.1172 171.779 54.1172ZM171.527 48.4453C171.09 48.4453 170.738 48.584 170.473 48.8613C170.211 49.1387 170.055 49.543 170.004 50.0742H172.945C172.938 49.5391 172.809 49.1348 172.559 48.8613C172.309 48.584 171.965 48.4453 171.527 48.4453Z" fill="#ACBACE"/>
<path d="M181.564 54H180.182V50.0156C180.182 49.5156 180.08 49.1426 179.877 48.8965C179.678 48.6504 179.359 48.5273 178.922 48.5273C178.34 48.5273 177.914 48.6992 177.645 49.043C177.375 49.3867 177.24 49.9629 177.24 50.7715V54H175.863V47.5195H176.941L177.135 48.3691H177.205C177.4 48.0605 177.678 47.8223 178.037 47.6543C178.396 47.4863 178.795 47.4023 179.232 47.4023C180.787 47.4023 181.564 48.1934 181.564 49.7754V54Z" fill="#ACBACE"/>
<path d="M187.834 52.1543C187.834 52.7871 187.604 53.2734 187.143 53.6133C186.682 53.9492 186.021 54.1172 185.162 54.1172C184.299 54.1172 183.605 53.9863 183.082 53.7246V52.5352C183.844 52.8867 184.553 53.0625 185.209 53.0625C186.057 53.0625 186.48 52.8066 186.48 52.2949C186.48 52.1309 186.434 51.9941 186.34 51.8848C186.246 51.7754 186.092 51.6621 185.877 51.5449C185.662 51.4277 185.363 51.2949 184.98 51.1465C184.234 50.8574 183.729 50.5684 183.463 50.2793C183.201 49.9902 183.07 49.6152 183.07 49.1543C183.07 48.5996 183.293 48.1699 183.738 47.8652C184.188 47.5566 184.797 47.4023 185.566 47.4023C186.328 47.4023 187.049 47.5566 187.729 47.8652L187.283 48.9023C186.584 48.6133 185.996 48.4688 185.52 48.4688C184.793 48.4688 184.43 48.6758 184.43 49.0898C184.43 49.293 184.523 49.4648 184.711 49.6055C184.902 49.7461 185.316 49.9395 185.953 50.1855C186.488 50.3926 186.877 50.582 187.119 50.7539C187.361 50.9258 187.541 51.125 187.658 51.3516C187.775 51.5742 187.834 51.8418 187.834 52.1543Z" fill="#ACBACE"/>
<path d="M190.705 54H189.328V47.5195H190.705V54ZM189.246 45.8027C189.246 45.5566 189.312 45.3672 189.445 45.2344C189.582 45.1016 189.775 45.0352 190.025 45.0352C190.268 45.0352 190.455 45.1016 190.588 45.2344C190.725 45.3672 190.793 45.5566 190.793 45.8027C190.793 46.0371 190.725 46.2227 190.588 46.3594C190.455 46.4922 190.268 46.5586 190.025 46.5586C189.775 46.5586 189.582 46.4922 189.445 46.3594C189.312 46.2227 189.246 46.0371 189.246 45.8027Z" fill="#ACBACE"/>
<path d="M198.428 50.748C198.428 51.8066 198.156 52.6328 197.613 53.2266C197.07 53.8203 196.314 54.1172 195.346 54.1172C194.74 54.1172 194.205 53.9805 193.74 53.707C193.275 53.4336 192.918 53.041 192.668 52.5293C192.418 52.0176 192.293 51.4238 192.293 50.748C192.293 49.6973 192.562 48.877 193.102 48.2871C193.641 47.6973 194.4 47.4023 195.381 47.4023C196.318 47.4023 197.061 47.7051 197.607 48.3105C198.154 48.9121 198.428 49.7246 198.428 50.748ZM193.711 50.748C193.711 52.2441 194.264 52.9922 195.369 52.9922C196.463 52.9922 197.01 52.2441 197.01 50.748C197.01 49.2676 196.459 48.5273 195.357 48.5273C194.779 48.5273 194.359 48.7188 194.098 49.1016C193.84 49.4844 193.711 50.0332 193.711 50.748Z" fill="#ACBACE"/>
<path d="M205.717 54H204.334V50.0156C204.334 49.5156 204.232 49.1426 204.029 48.8965C203.83 48.6504 203.512 48.5273 203.074 48.5273C202.492 48.5273 202.066 48.6992 201.797 49.043C201.527 49.3867 201.393 49.9629 201.393 50.7715V54H200.016V47.5195H201.094L201.287 48.3691H201.357C201.553 48.0605 201.83 47.8223 202.189 47.6543C202.549 47.4863 202.947 47.4023 203.385 47.4023C204.939 47.4023 205.717 48.1934 205.717 49.7754V54Z" fill="#ACBACE"/>
<defs>
<linearGradient id="paint0_linear" x1="9.96735" y1="40.0327" x2="46.1436" y2="22.784" gradientUnits="userSpaceOnUse">
<stop stop-color="#8181FF"/>
<stop offset="1" stop-color="#FFCCCC"/>
</linearGradient>
</defs>
</svg>
