<svg viewBox="0 0 20 20" fill="currentColor" xmlns="http://www.w3.org/2000/svg">
<path fill-rule="evenodd" clip-rule="evenodd" d="M5 7.75022V4.50035C5 4.22401 5.21575 4 5.49539 4H7.50461C7.77821 4 8 4.229 8 4.50035V9H12V4.50035C12 4.22401 12.2158 4 12.4954 4H14.5046C14.7782 4 15 4.229 15 4.50035V7.75022V6.50044C15 6.22405 15.2307 6 15.5059 6H16.9941C17.2735 6 17.5 6.2308 17.5 6.50044V9H18.4998C18.776 9 19 9.21404 19 9.50468V10.4953C19 10.774 18.7724 11 18.4998 11H17.5V13.4996C17.5 13.7759 17.2693 14 16.9941 14H15.5059C15.2265 14 15 13.7692 15 13.4996V12.2498V15.4997C15 15.776 14.7842 16 14.5046 16H12.4954C12.2218 16 12 15.771 12 15.4997V11H8V15.4997C8 15.776 7.78425 16 7.50461 16H5.49539C5.22179 16 5 15.771 5 15.4997V12.2498V13.4996C5 13.7759 4.76929 14 4.49409 14H3.00591C2.7265 14 2.5 13.7692 2.5 13.4996V11H1.50021C1.22395 11 1 10.786 1 10.4953V9.50468C1 9.22596 1.22759 9 1.50021 9H2.5V6.50044C2.5 6.22405 2.73071 6 3.00591 6H4.49409C4.7735 6 5 6.2308 5 6.50044V7.75022Z" />
</svg>
