<svg viewBox="0 0 20 20" fill="currentColor" xmlns="http://www.w3.org/2000/svg">
<path fill-rule="evenodd" clip-rule="evenodd" d="M1 6.25C1 5.97386 1.22386 5.75 1.5 5.75H4.5C4.77614 5.75 5 5.97386 5 6.25V9.25C5 9.52614 4.77614 9.75 4.5 9.75H1.5C1.22386 9.75 1 9.52614 1 9.25V6.25ZM8 6.25C8 5.97386 8.22386 5.75 8.5 5.75H11.5C11.7761 5.75 12 5.97386 12 6.25V9.25C12 9.52614 11.7761 9.75 11.5 9.75H8.5C8.22386 9.75 8 9.52614 8 9.25V6.25ZM5 11.25C4.72386 11.25 4.5 11.4739 4.5 11.75V14.75C4.5 15.0261 4.72386 15.25 5 15.25H8C8.27614 15.25 8.5 15.0261 8.5 14.75V11.75C8.5 11.4739 8.27614 11.25 8 11.25H5ZM11.5 11.75C11.5 11.4739 11.7239 11.25 12 11.25H15C15.2761 11.25 15.5 11.4739 15.5 11.75V14.75C15.5 15.0261 15.2761 15.25 15 15.25H12C11.7239 15.25 11.5 15.0261 11.5 14.75V11.75ZM15.5 5.75C15.2239 5.75 15 5.97386 15 6.25V9.25C15 9.52614 15.2239 9.75 15.5 9.75H18.5C18.7761 9.75 19 9.52614 19 9.25V6.25C19 5.97386 18.7761 5.75 18.5 5.75H15.5Z" />
</svg>
