<svg viewBox="0 0 20 20" fill="currentColor" xmlns="http://www.w3.org/2000/svg">
<path fill-rule="evenodd" clip-rule="evenodd" d="M7 4C7 2.89543 7.89543 2 9 2H11C12.1046 2 13 2.89543 13 4V5H18C18.5523 5 19 5.44772 19 6V17C19 17.5523 18.5523 18 18 18H2C1.44772 18 1 17.5523 1 17V6C1 5.44772 1.44772 5 2 5H7V4ZM10 3.5C9.17157 3.5 8.5 4.17157 8.5 5H11.5C11.5 4.17157 10.8284 3.5 10 3.5ZM11.171 14.022C11.0766 13.7625 11.2104 13.4756 11.4698 13.3811L16.1683 11.671C16.4278 11.5766 16.7147 11.7104 16.8092 11.9698L17.1512 12.9095C17.2456 13.169 17.1118 13.4559 16.8523 13.5504L12.1539 15.2605C11.8944 15.3549 11.6075 15.2211 11.513 14.9617L11.171 14.022ZM13.5 9.25C13.5 10.2165 12.7165 11 11.75 11C10.7835 11 10 10.2165 10 9.25C10 8.2835 10.7835 7.5 11.75 7.5C12.7165 7.5 13.5 8.2835 13.5 9.25Z" />
</svg>
