<svg viewBox="0 0 400 130" fill="none" xmlns="http://www.w3.org/2000/svg">
<path fill-rule="evenodd" clip-rule="evenodd" d="M206.87 41.71C206.642 59.703 222.906 69.744 235.157 75.714C247.745 81.84 251.973 85.768 251.925 91.245C251.829 99.629 241.883 103.328 232.575 103.472C216.335 103.724 206.894 99.088 199.387 95.581L193.538 122.954C201.069 126.426 215.014 129.453 229.476 129.585C263.42 129.585 285.628 112.829 285.749 86.849C285.881 53.878 240.142 52.052 240.454 37.314C240.562 32.846 244.826 28.077 254.171 26.864C258.795 26.252 271.563 25.783 286.037 32.449L291.718 5.965C283.935 3.13 273.929 0.414993 261.474 0.414993C229.524 0.414993 207.051 17.399 206.87 41.71V41.71ZM346.31 2.69701C340.112 2.69701 334.887 6.313 332.557 11.862L284.067 127.639H317.987L324.737 108.985H366.188L370.104 127.639H400L373.911 2.69701H346.31ZM351.054 36.449L360.843 83.365H334.034L351.054 36.449ZM165.744 2.69701L139.007 127.639H171.329L198.054 2.69701H165.744ZM117.927 2.69701L84.283 87.737L70.674 15.429C69.077 7.358 62.771 2.69701 55.768 2.69701H0.768997L0 6.325C11.291 8.775 24.119 12.727 31.89 16.955C36.646 19.537 38.004 21.795 39.565 27.933L65.341 127.639H99.502L151.871 2.69701H117.927Z" fill="#1A1F71"/>
</svg>
