<svg viewBox="0 0 20 22" fill="currentColor" xmlns="http://www.w3.org/2000/svg">
<path fill-rule="evenodd" clip-rule="evenodd" d="M5.55798 6.74677C5.78077 8.29008 6.81309 9.41154 7.86368 9.25171C8.91427 9.09187 9.58576 7.71064 9.36297 6.16732C9.14018 4.62401 8.10786 3.50255 7.05727 3.66276C6.00745 3.82259 5.33518 5.20345 5.55798 6.74677ZM15.0867 15.5565C15.0984 16.7789 13.9825 17.8582 13.2731 18.4201C12.942 18.6825 12.4813 18.6546 12.1513 18.3908L10.622 17.1688C10.2567 16.8768 9.73771 16.8771 9.37265 17.1694L7.8444 18.3934C7.51652 18.6559 7.05905 18.6857 6.72803 18.4271C6.02076 17.8745 4.90731 16.8105 4.90731 15.5887C4.96575 12.6762 7.19538 10.3115 10.0019 10.1855C12.8131 10.2682 15.0587 12.6402 15.0867 15.5565ZM4.82972 11.8232C4.07825 12.4196 2.88096 11.9271 2.15555 10.7245C1.43015 9.52188 1.45131 8.06305 2.2024 7.46701C2.95387 6.87097 4.15116 7.36266 4.87657 8.5657C5.60197 9.76874 5.58119 11.2268 4.82972 11.8232ZM14.442 6.74677C14.2192 8.29008 13.1869 9.41154 12.1363 9.25171C11.0857 9.09187 10.4142 7.71064 10.637 6.16732C10.8598 4.62401 11.8921 3.50255 12.9427 3.66276C13.9925 3.82259 14.6648 5.20345 14.442 6.74677ZM15.1703 11.8232C15.9218 12.4196 17.119 11.9271 17.8444 10.7245C18.5698 9.52188 18.5487 8.06305 17.7976 7.46701C17.0461 6.87097 15.8488 7.36266 15.1234 8.5657C14.398 9.76874 14.4188 11.2268 15.1703 11.8232Z" />
</svg>
