<svg viewBox="0 0 20 20" fill="currentColor" xmlns="http://www.w3.org/2000/svg">
<path fill-rule="evenodd" clip-rule="evenodd" d="M16 1C16.2761 1 16.5 1.22386 16.5 1.5V14C16.5 14.2761 16.2761 14.5 16 14.5H6.5C5.67157 14.5 5 15.1716 5 16C5 16.8284 5.67157 17.5 6.5 17.5H16C16.2761 17.5 16.5 17.7239 16.5 18V18.5C16.5 18.7761 16.2761 19 16 19H5.5C4.39543 19 3.5 18.1046 3.5 17V3C3.5 1.89543 4.39543 1 5.5 1H16ZM6 16C6 15.7239 6.22386 15.5 6.5 15.5H15.5C15.7761 15.5 16 15.7239 16 16C16 16.2761 15.7761 16.5 15.5 16.5H6.5C6.22386 16.5 6 16.2761 6 16ZM7 4C6.72386 4 6.5 4.22386 6.5 4.5V6.5C6.5 6.77614 6.72386 7 7 7H13.5C13.7761 7 14 6.77614 14 6.5V4.5C14 4.22386 13.7761 4 13.5 4H7Z" />
</svg>
