<svg viewBox="0 0 20 20" fill="currentColor" xmlns="http://www.w3.org/2000/svg">
<path fill-rule="evenodd" clip-rule="evenodd" d="M5.25 6.50899V1.49048C5.25 1.21959 5.47133 1 5.75783 1H6.24217C6.52264 1 6.75 1.21506 6.75 1.49048V6.50899C6.75 6.77212 6.97386 7 7.25 7C7.51807 7 7.75 6.78017 7.75 6.50899V1.49048C7.75 1.21959 7.97133 1 8.25783 1H8.74217C9.02264 1 9.25 1.21506 9.25 1.49048V7.49022C9.25 8.79331 8.26246 9.86445 7 9.98809V18.4904C7 18.7718 6.78596 19 6.49532 19H5.50468C5.22596 19 5 18.7723 5 18.4904V9.98805C3.73708 9.86395 2.75 8.78874 2.75 7.49022V1.49048C2.75 1.21959 2.97133 1 3.25783 1H3.74217C4.02264 1 4.25 1.21506 4.25 1.49048V6.50899C4.25 6.77212 4.47386 7 4.75 7C5.01807 7 5.25 6.78017 5.25 6.50899ZM17 1V18.4904C17 18.7718 16.786 19 16.4953 19H15.5047C15.226 19 15 18.7723 15 18.4904V12H13.4905C13.2196 12 13 11.7671 13 11.4966V5C13 1 17 1 17 1Z" />
</svg>
