<svg viewBox="0 0 20 20" fill="currentColor" xmlns="http://www.w3.org/2000/svg">
<path fill-rule="evenodd" clip-rule="evenodd" d="M15 16.9906V16H5V16.9906C5 17.5481 4.55734 18 4.00104 18H2.99896C2.44725 18 2 17.5566 2 16.9906V9.88235C2 9.63232 2.04258 9.33038 2.1139 9H1.99896C1.44725 9 1 8.55614 1 8C1 7.44772 1.44266 7 1.99896 7H2.72574C3.15448 5.83453 3.61415 4.83581 3.61415 4.83581C4.04816 3.82192 5.29761 3 6.40234 3H13.5977C14.7035 3 15.9593 3.82209 16.3858 4.83542C16.3858 4.83542 16.8457 5.83427 17.2745 7H18.001C18.5528 7 19 7.44386 19 8C19 8.55228 18.5573 9 18.001 9H17.8862C17.9575 9.3303 18 9.63221 18 9.88235V16.9906C18 17.5481 17.5573 18 17.001 18H15.999C15.4472 18 15 17.5566 15 16.9906ZM16 9C15.9453 8.80161 14.8517 5.92678 14.8517 5.92678C14.6574 5.41493 14.0537 5 13.5025 5H6.49754C5.94662 5 5.33932 5.42311 5.14834 5.92675C5.14834 5.92675 4.05473 8.80146 4 9H16ZM12.5 11.5047C12.5 11.226 12.7296 11 13.0015 11H15.4985C15.7755 11 16 11.214 16 11.5047V12.4953C16 12.774 15.7704 13 15.4985 13H13.0015C12.7245 13 12.5 12.786 12.5 12.4953V11.5047ZM4.50146 11C4.22964 11 4 11.226 4 11.5047V12.4953C4 12.786 4.22451 13 4.50146 13H6.99854C7.27036 13 7.5 12.774 7.5 12.4953V11.5047C7.5 11.214 7.27549 11 6.99854 11H4.50146Z" />
</svg>
