<svg viewBox="0 0 20 20" fill="currentColor" xmlns="http://www.w3.org/2000/svg">
<path fill-rule="evenodd" clip-rule="evenodd" d="M5 7.35952V17.4966C5 17.7671 5.22818 18 5.50965 18H14.4904C14.7724 18 15 17.7746 15 17.4966V7.35952C15 7.08464 15.2213 6.86182 15.5078 6.86182H15.9922C16.2726 6.86182 16.5 7.07666 16.5 7.35952V10.25L18.5567 9.22168C18.8071 9.09646 18.9297 8.78921 18.8431 8.52919L17.3169 3.95072C17.1438 3.43151 16.5994 2.79971 16.1053 2.55265L15.8947 2.44735C15.4047 2.20236 14.5543 2 14.0046 2H13C13 3.10457 11.6569 4 10 4C8.34315 4 7 3.10457 7 2L5.9954 2C5.45567 2 4.59943 2.20029 4.1053 2.44735L3.89471 2.55265C3.40473 2.79764 2.85812 3.42565 2.6831 3.95072L1.15694 8.52919C1.07119 8.78646 1.1985 9.09925 1.44336 9.22168L3.5 10.25V7.35952C3.5 7.08464 3.72133 6.86182 4.00784 6.86182H4.49217C4.77264 6.86182 5 7.07666 5 7.35952Z" />
</svg>
