<svg fill="currentColor" viewBox="0 0 16 18" xmlns="http://www.w3.org/2000/svg">
<path fill-rule="evenodd" clip-rule="evenodd" d="M8 0C5.23858 0 3 2.23858 3 5V8H0.5C0.223858 8 0 8.22386 0 8.5V17.5C0 17.7761 0.223858 18 0.5 18H15.5C15.7761 18 16 17.7761 16 17.5V8.5C16 8.22386 15.7761 8 15.5 8H13V5C13 2.23858 10.7614 0 8 0ZM5 5V8H11V5C11 3.34315 9.65685 2 8 2C6.34315 2 5 3.34315 5 5ZM8 11C7.44772 11 7 11.4477 7 12V14C7 14.5523 7.44772 15 8 15C8.55229 15 9 14.5523 9 14V12C9 11.4477 8.55229 11 8 11Z"/>
</svg>
