<svg viewBox="0 0 66 40" fill="none" xmlns="http://www.w3.org/2000/svg">
<path d="M41.9228 35.7225H24.0773V4.27805H41.9228V35.7225Z" fill="#FF5F00"/>
<path d="M25.2102 19.9999C25.2102 26.3888 28.2695 32.0555 32.9716 35.7222C29.5158 38.3888 25.1536 40 20.3948 40C9.12097 40 -6.10352e-05 31.0555 -6.10352e-05 19.9999C-6.10352e-05 8.94437 9.12097 -9.45151e-05 20.3948 -9.45151e-05C25.1536 -9.45151e-05 29.5158 1.61101 32.9716 4.27768C28.2695 7.8888 25.2102 13.611 25.2102 19.9999Z" fill="#EB001B"/>
<path d="M66.0001 20.0002C66.0001 8.94464 56.879 0.000180143 45.6052 0.000180143C40.8464 0.000180143 36.4842 1.61128 33.0284 4.27796C37.7872 7.94463 40.7898 13.6113 40.7898 20.0002C40.7898 26.3891 37.7305 32.0558 33.0284 35.7225C36.4842 38.3891 40.8464 40.0002 45.6052 40.0002C56.879 40.0002 66.0001 31.0002 66.0001 20.0002Z" fill="#F79E1B"/>
</svg>
