<svg viewBox="0 0 20 20" fill="currentColor" xmlns="http://www.w3.org/2000/svg">
<path fill-rule="evenodd" clip-rule="evenodd" d="M18 6.97255C18 8.29114 17.4761 9.55572 16.5437 10.488L10.517 16.5147C9.26454 17.7882 7.42525 18.2921 5.69867 17.8346C3.97209 17.3771 2.62357 16.0287 2.16602 14.3021C1.70847 12.5756 2.2122 10.7363 3.48563 9.48376L9.51124 3.45706C10.4436 2.52415 11.7085 2 13.0275 2C14.3464 2 15.6113 2.52415 16.5437 3.45706C17.4761 4.38937 18 5.65395 18 6.97255ZM15.1296 4.8714C14.5718 4.31328 13.8158 4 13.0275 4C12.2391 4 11.4831 4.31328 10.9256 4.87115L7.88807 7.90965L12.1028 12.1005L15.1296 9.0737C15.6869 8.51647 16 7.76065 16 6.97255C16 6.18444 15.6869 5.42863 15.1296 4.8714ZM4.79289 10.7929L6.29289 9.29289C6.68342 8.90237 7.31658 8.90237 7.70711 9.29289C8.09763 9.68342 8.09763 10.3166 7.70711 10.7071L6.20711 12.2071C5.81658 12.5976 5.18342 12.5976 4.79289 12.2071C4.40237 11.8166 4.40237 11.1834 4.79289 10.7929Z" />
</svg>
