<svg viewBox="0 0 20 20" fill="currentColor" xmlns="http://www.w3.org/2000/svg">
<path fill-rule="evenodd" clip-rule="evenodd" d="M5.5 4.5H17.4925C18.0489 4.5 18.3633 4.93288 18.2014 5.44563L15.7986 13.0544C15.6337 13.5766 15.0442 14 14.4975 14H4.50247C3.94882 14 3.5 13.5545 3.5 13.0013V4.49896C3.5 3.94266 3.05228 3.5 2.5 3.5C1.94386 3.5 1.5 3.05228 1.5 2.5C1.5 1.94386 1.95191 1.5 2.50937 1.5H3.5C4.61227 1.5 5.5 2.39762 5.5 3.50488V4.5ZM5 18.5C5.82843 18.5 6.5 17.8284 6.5 17C6.5 16.1716 5.82843 15.5 5 15.5C4.17157 15.5 3.5 16.1716 3.5 17C3.5 17.8284 4.17157 18.5 5 18.5ZM12 18.5C12.8284 18.5 13.5 17.8284 13.5 17C13.5 16.1716 12.8284 15.5 12 15.5C11.1716 15.5 10.5 16.1716 10.5 17C10.5 17.8284 11.1716 18.5 12 18.5Z"/>
</svg>
