<svg viewBox="0 0 14 14"  fill="currentColor" xmlns="http://www.w3.org/2000/svg">
<path d="M9.3875 9.67035L9.07548 9.35832L8.72709 9.62914C7.86345 10.3005 6.77908 10.7 5.6 10.7C2.78335 10.7 0.5 8.41665 0.5 5.6C0.5 2.78335 2.78335 0.5 5.6 0.5C8.41665 0.5 10.7 2.78335 10.7 5.6C10.7 6.77908 10.3005 7.86345 9.62914 8.72709L9.35832 9.07548L9.67035 9.3875L13.0527 12.7698L12.7698 13.0527L9.3875 9.67035ZM5.6 10.3C8.19574 10.3 10.3 8.19574 10.3 5.6C10.3 3.00426 8.19574 0.9 5.6 0.9C3.00426 0.9 0.9 3.00426 0.9 5.6C0.9 8.19574 3.00426 10.3 5.6 10.3Z" stroke="#A0AEC0"/>
</svg>
